<svg width="20" height="20" viewBox="0 0 20 20" fill="none" xmlns="http://www.w3.org/2000/svg">
<path d="M4.99996 11.6667H10.8333C11.0694 11.6667 11.2673 11.5868 11.427 11.4271C11.5868 11.2674 11.6666 11.0695 11.6666 10.8333V6.66668C11.6666 6.43057 11.5868 6.23265 11.427 6.07293C11.2673 5.9132 11.0694 5.83334 10.8333 5.83334H4.99996C4.76385 5.83334 4.56593 5.9132 4.40621 6.07293C4.24649 6.23265 4.16663 6.43057 4.16663 6.66668V10.8333C4.16663 11.0695 4.24649 11.2674 4.40621 11.4271C4.56593 11.5868 4.76385 11.6667 4.99996 11.6667ZM3.33329 16.6667C2.87496 16.6667 2.4826 16.5035 2.15621 16.1771C1.82982 15.8507 1.66663 15.4583 1.66663 15V5.00001C1.66663 4.54168 1.82982 4.14932 2.15621 3.82293C2.4826 3.49654 2.87496 3.33334 3.33329 3.33334H16.6666C17.125 3.33334 17.5173 3.49654 17.8437 3.82293C18.1701 4.14932 18.3333 4.54168 18.3333 5.00001V15C18.3333 15.4583 18.1701 15.8507 17.8437 16.1771C17.5173 16.5035 17.125 16.6667 16.6666 16.6667H3.33329ZM3.33329 15H16.6666V5.00001H3.33329V15Z" fill="currentColor"/>
</svg>
