<svg width="20" height="20" viewBox="0 0 20 20" fill="none" xmlns="http://www.w3.org/2000/svg">
<path fill-rule="evenodd" clip-rule="evenodd" d="M9.55615 2.63828C9.68663 2.54823 9.84142 2.5 9.99996 2.5C10.1585 2.5 10.3133 2.54823 10.4438 2.63828L17.9969 7.84734C18.1524 7.95507 18.2635 8.11556 18.3097 8.29902C18.3558 8.48248 18.3339 8.67645 18.2478 8.84493C18.1618 9.01341 18.0176 9.14496 17.8419 9.21517C17.6663 9.28538 17.4711 9.28948 17.2926 9.2267V16.0433C17.2926 16.5959 17.0731 17.1259 16.6824 17.5166C16.2916 17.9074 15.7616 18.1269 15.209 18.1269H4.7909C4.23829 18.1269 3.70831 17.9074 3.31756 17.5166C2.9268 17.1259 2.70728 16.5959 2.70728 16.0433V9.2267C2.52882 9.28948 2.33366 9.28538 2.15799 9.21517C1.98233 9.14496 1.83811 9.01341 1.75209 8.84493C1.66606 8.67645 1.64408 8.48248 1.69023 8.29902C1.73638 8.11556 1.84751 7.95507 2.00301 7.84734L9.55615 2.63828ZM4.26999 8.18281V8.22969V16.0433C4.26999 16.1814 4.32487 16.3139 4.42256 16.4116C4.52025 16.5093 4.65275 16.5642 4.7909 16.5642H6.87452V12.1365C6.87452 11.9293 6.95684 11.7305 7.10338 11.584C7.24991 11.4374 7.44865 11.3551 7.65588 11.3551H12.344C12.5513 11.3551 12.75 11.4374 12.8965 11.584C13.0431 11.7305 13.1254 11.9293 13.1254 12.1365V16.5642H15.209C15.3472 16.5642 15.4797 16.5093 15.5774 16.4116C15.675 16.3139 15.7299 16.1814 15.7299 16.0433V8.22969L15.731 8.18281L10.001 4.23017L4.26999 8.18281ZM11.5627 16.5642V12.9178H8.43724V16.5642H11.5627Z" fill="currentColor" fill-opacity="0.55"/>
</svg>
